<?xml version="1.0" standalone="no"?>
<!DOCTYPE svg PUBLIC "-//W3C//DTD SVG 20010904//EN"
 "http://www.w3.org/TR/2001/REC-SVG-20010904/DTD/svg10.dtd">
<svg version="1.0" xmlns="http://www.w3.org/2000/svg"
 width="700.000000pt" height="700.000000pt" viewBox="0 0 700.000000 700.000000"
 preserveAspectRatio="xMidYMid meet">
<metadata>
Created by potrace 1.11, written by Peter Selinger 2001-2013
</metadata>
<g transform="translate(0.000000,700.000000) scale(0.100000,-0.100000)"
fill="#000000" stroke="none">
<path d="M0 3500 l0 -3500 3500 0 3500 0 0 3500 0 3500 -3500 0 -3500 0 0
-3500z m1811 1979 c53 -53 64 -168 28 -284 -50 -162 -403 -871 -522 -1050
-160 -239 -352 -346 -568 -315 -198 28 -309 148 -309 334 0 142 54 250 152
300 62 31 102 30 113 -3 3 -11 -6 -62 -20 -113 -35 -126 -44 -271 -21 -333 21
-53 39 -65 98 -65 57 0 131 43 192 112 90 100 168 234 402 698 257 511 351
683 390 718 31 27 39 27 65 1z m3721 -378 c46 -48 63 -106 48 -160 -30 -113
-170 -106 -228 11 -31 62 -23 109 30 162 34 35 42 38 76 33 26 -5 48 -18 74
-46z m-3010 -202 c30 -16 58 -86 58 -150 0 -85 -22 -143 -114 -296 -161 -269
-206 -368 -206 -452 0 -80 25 -91 102 -42 57 36 120 114 196 241 75 126 83
131 114 69 42 -81 1 -196 -107 -305 -85 -84 -171 -126 -273 -132 -70 -4 -82
-1 -132 25 -43 23 -60 39 -80 78 l-26 50 -69 -53 c-125 -94 -234 -116 -331
-67 -55 28 -89 71 -110 141 -52 173 59 431 285 668 211 219 417 285 525 166
20 -22 38 -40 40 -40 2 0 16 20 30 45 36 61 60 74 98 54z m3361 -27 c11 -19
22 -60 25 -97 l5 -64 66 53 c96 78 170 116 235 123 55 6 56 5 100 -38 49 -49
72 -110 62 -167 -6 -39 -75 -177 -165 -332 -135 -231 -167 -398 -78 -408 60
-7 163 91 272 262 42 66 74 106 85 106 32 0 54 -38 54 -93 0 -79 -40 -156
-123 -238 -147 -143 -346 -191 -469 -112 -149 97 -107 323 133 718 41 69 75
130 75 136 0 36 -154 -75 -262 -190 -100 -107 -193 -253 -308 -487 -55 -111
-107 -204 -115 -208 -22 -8 -48 7 -82 48 l-28 35 -72 -36 c-153 -76 -323 -50
-375 57 l-15 30 -39 -31 c-258 -206 -591 -89 -536 187 19 92 110 263 265 494
84 125 46 119 -108 -18 -178 -157 -318 -356 -456 -648 -76 -160 -108 -177
-168 -93 -81 111 -31 272 204 649 59 94 110 181 113 192 5 19 3 19 -24 5 -104
-55 -275 -228 -377 -382 -33 -49 -104 -181 -158 -292 -55 -110 -106 -204 -115
-207 -8 -3 -24 -2 -34 4 -24 13 -70 68 -70 85 0 26 -17 25 -73 -5 -54 -30 -55
-32 -62 -83 -26 -186 -157 -431 -319 -593 -120 -121 -198 -150 -273 -104 -37
22 -86 85 -114 145 -82 176 112 440 437 596 83 39 84 40 84 77 0 21 -7 48 -16
61 -16 22 -22 23 -82 18 -51 -4 -84 -14 -145 -46 -88 -46 -112 -50 -127 -22
-16 31 -12 109 9 149 24 47 60 79 139 127 175 104 366 277 416 376 53 107 28
162 -62 139 -116 -29 -283 -140 -419 -278 -89 -90 -115 -100 -141 -52 -18 34
-9 115 18 173 101 214 473 373 658 281 129 -64 168 -225 93 -379 -41 -83 -155
-206 -270 -291 l-79 -58 34 -12 c55 -19 84 -43 116 -95 37 -58 43 -56 129 31
47 48 72 90 161 271 102 205 243 457 295 527 31 42 60 41 103 -3 31 -32 35
-42 38 -106 l4 -71 37 35 c98 94 227 167 295 167 58 0 110 -56 127 -137 l13
-62 35 31 c105 93 253 166 310 153 57 -12 91 -70 91 -152 0 -102 -30 -170
-189 -430 -69 -113 -101 -193 -101 -252 0 -81 39 -116 100 -91 78 32 224 240
353 500 85 171 197 362 239 408 40 42 82 24 113 -51 39 -93 16 -169 -131 -447
-105 -196 -134 -271 -134 -346 0 -61 15 -79 59 -69 84 18 182 134 268 315 94
198 308 564 366 628 28 30 57 25 80 -16z m-2219 -1125 c30 -41 34 -138 7 -224
-11 -38 -87 -192 -172 -348 -361 -669 -433 -813 -403 -801 48 18 261 49 344
50 80 0 102 -3 137 -22 65 -34 119 -117 91 -139 -7 -6 -53 -14 -102 -17 -96
-8 -259 -39 -423 -80 -168 -43 -181 -38 -258 89 -33 54 -36 65 -32 115 6 65
58 189 194 458 192 379 466 853 536 930 27 29 54 25 81 -11z m745 -584 c73
-47 129 -108 142 -157 35 -128 -96 -352 -251 -431 -82 -42 -175 -46 -260 -12
-35 15 -66 24 -69 21 -3 -3 -7 -52 -9 -108 -4 -87 -1 -110 16 -149 28 -64 58
-81 131 -74 98 8 182 56 287 161 106 107 163 188 188 271 36 118 111 246 200
342 139 150 314 209 422 143 18 -12 63 -56 99 -98 71 -83 95 -139 95 -224 0
-32 4 -48 13 -48 56 1 239 166 347 315 60 81 93 107 120 90 23 -14 52 -90 53
-141 l2 -52 30 24 c114 93 228 154 287 154 74 0 142 -92 141 -190 0 -60 -26
-120 -123 -284 -154 -261 -197 -391 -147 -453 43 -55 181 58 315 257 46 68 62
85 82 85 56 0 62 -94 13 -194 -34 -70 -132 -167 -210 -209 -87 -46 -182 -66
-255 -53 -82 14 -126 38 -156 84 -23 34 -28 54 -30 121 -6 121 17 179 213 541
36 66 65 123 65 128 1 33 -122 -57 -233 -172 -115 -119 -186 -230 -314 -488
-57 -117 -109 -215 -114 -219 -21 -13 -57 7 -85 47 -26 38 -29 50 -28 118 1
84 23 154 100 320 41 87 42 93 21 86 -12 -4 -45 -9 -74 -12 l-51 -5 -22 -67
c-69 -204 -203 -376 -347 -444 -167 -78 -345 -15 -420 149 l-24 54 -26 -30
c-33 -40 -132 -110 -208 -148 -188 -93 -404 -80 -519 33 -182 180 -102 558
173 818 153 144 297 178 420 100z"/>
<path d="M2178 4710 c-101 -67 -268 -274 -343 -425 -63 -127 -91 -252 -69
-309 10 -26 64 -19 109 15 147 111 406 578 393 711 -4 45 -31 47 -90 8z"/>
<path d="M2989 3738 c-67 -48 -185 -171 -229 -239 -65 -101 -77 -219 -22 -219
39 0 138 133 217 290 37 73 88 200 81 200 -1 0 -23 -14 -47 -32z"/>
<path d="M4307 3049 c-74 -39 -194 -177 -271 -311 l-28 -48 28 -10 c81 -31
231 102 310 274 25 54 29 107 9 112 -5 2 -27 -6 -48 -17z"/>
<path d="M5159 3018 c-14 -27 -6 -116 14 -155 l16 -28 14 35 c22 52 31 124 18
149 -15 27 -47 27 -62 -1z"/>
<path d="M4966 2909 c-130 -152 -216 -353 -216 -507 0 -103 26 -133 90 -105
84 35 178 148 257 308 73 148 73 133 6 201 -33 32 -68 79 -79 103 l-20 43 -38
-43z"/>
</g>
</svg>
