<?xml version="1.0" standalone="no"?>
<!DOCTYPE svg PUBLIC "-//W3C//DTD SVG 20010904//EN"
 "http://www.w3.org/TR/2001/REC-SVG-20010904/DTD/svg10.dtd">
<svg version="1.0" xmlns="http://www.w3.org/2000/svg"
 width="700.000000pt" height="700.000000pt" viewBox="0 0 700.000000 700.000000"
 preserveAspectRatio="xMidYMid meet">
<metadata>
Created by potrace 1.11, written by Peter Selinger 2001-2013
</metadata>
<g transform="translate(0.000000,700.000000) scale(0.100000,-0.100000)"
fill="#000000" stroke="none">
<path d="M0 3500 l0 -3500 3500 0 3500 0 0 3500 0 3500 -3500 0 -3500 0 0
-3500z m3034 2766 c100 -444 254 -718 461 -820 78 -39 204 -48 286 -21 234 75
435 315 620 740 l48 110 1 -145 c1 -545 107 -868 318 -972 63 -31 73 -33 172
-33 85 1 121 6 190 27 153 49 327 143 533 290 54 38 100 68 102 66 2 -2 -17
-30 -42 -63 -149 -198 -301 -458 -366 -630 -76 -198 -88 -375 -34 -487 103
-211 420 -273 942 -184 77 13 141 23 143 21 1 -1 -61 -36 -140 -76 -212 -110
-366 -216 -479 -328 -150 -151 -206 -272 -196 -425 9 -149 71 -260 231 -422
120 -121 213 -193 391 -306 63 -39 113 -73 111 -75 -2 -2 -64 7 -139 21 -421
78 -718 72 -896 -19 -150 -75 -216 -230 -191 -443 22 -181 70 -330 216 -660
l15 -34 -58 42 c-204 149 -399 258 -554 312 -82 27 -108 32 -199 32 -98 1
-109 -1 -173 -31 -197 -93 -327 -374 -393 -851 -10 -67 -19 -120 -22 -117 -3
2 -28 66 -57 142 -104 276 -228 498 -330 592 -62 57 -136 91 -202 91 -172 0
-354 -159 -678 -593 l-110 -148 -7 223 c-11 374 -59 556 -180 685 -71 74 -139
104 -249 111 -167 9 -346 -43 -624 -182 -99 -50 -184 -93 -189 -95 -5 -2 34
52 86 120 212 276 372 551 418 719 78 287 -66 448 -461 514 -133 22 -426 36
-637 30 l-177 -5 155 68 c342 152 560 282 686 408 172 172 185 335 42 524
-114 151 -314 309 -658 521 -74 46 -139 87 -144 91 -5 4 42 -8 105 -27 153
-46 324 -89 439 -110 134 -25 401 -25 490 -1 207 56 310 183 310 383 0 185
-88 433 -254 713 -37 63 -65 115 -64 117 2 1 72 -42 157 -96 187 -120 375
-218 501 -261 82 -28 109 -33 200 -33 130 -1 184 20 259 98 135 144 204 417
226 899 4 82 9 147 10 145 2 -2 20 -75 39 -162z"/>
<path d="M3365 4924 c-333 -49 -601 -179 -820 -399 -188 -189 -306 -397 -371
-659 -34 -135 -44 -393 -20 -536 32 -196 114 -409 217 -561 288 -429 796 -672
1294 -620 634 67 1109 492 1242 1111 27 128 24 409 -5 547 -121 563 -525 969
-1092 1099 -63 15 -381 27 -445 18z"/>
</g>
</svg>
